<svg width="189" height="86" viewBox="0 0 189 86" fill="none" xmlns="http://www.w3.org/2000/svg">
<g clip-path="url(#clip0_0_181)">
<path d="M188.23 0H0V85.19H188.23V0Z" fill="#ED1B24"/>
<path d="M162.55 12.0901H173.08V62.0201H182.01V74.6101H162.55V12.0901Z" fill="white"/>
<path d="M182.93 15.4099C182.93 17.6199 181.14 19.4199 178.92 19.4199C176.7 19.4199 174.91 17.6299 174.91 15.4099C174.91 13.1899 176.7 11.3999 178.92 11.3999C181.14 11.3999 182.93 13.1899 182.93 15.4099V15.4099Z" stroke="white" stroke-width="1.67"/>
<path d="M177.36 17.48V13.27H179.22C179.59 13.27 179.88 13.31 180.08 13.38C180.27 13.46 180.43 13.59 180.55 13.78C180.67 13.97 180.73 14.18 180.73 14.41C180.73 14.71 180.63 14.96 180.44 15.16C180.25 15.37 179.95 15.49 179.55 15.55C179.7 15.62 179.81 15.69 179.89 15.76C180.05 15.91 180.21 16.1 180.35 16.32L181.08 17.46H180.38L179.83 16.59C179.67 16.34 179.53 16.14 179.43 16.01C179.33 15.88 179.23 15.78 179.15 15.73C179.07 15.68 178.98 15.64 178.9 15.62C178.84 15.61 178.73 15.6 178.59 15.6H177.95V17.47H177.39L177.36 17.48ZM177.92 15.13H179.12C179.37 15.13 179.57 15.1 179.72 15.05C179.86 15 179.97 14.91 180.05 14.8C180.12 14.68 180.16 14.56 180.16 14.42C180.16 14.22 180.09 14.06 179.94 13.93C179.8 13.8 179.57 13.74 179.26 13.74H177.93V15.13H177.92Z" fill="white"/>
<path d="M7.74023 74.3801V12.0901H21.9402L26.9802 38.2001L32.7002 12.0901H46.4402V68.2001L55.3702 12.0901H69.3402L78.0402 68.2001V12.3201H96.5902C96.5902 12.3201 103 13.4601 106.21 22.4001L104.84 12.0901H116.06L121.33 44.3801L126.83 12.3201H158.43V24.0001H149.04V36.8201H157.97V49.8701H149.27V61.7801H158.43V74.3801H138.05V14.3801L127.51 74.3801H114.92L108.28 34.5301C108.28 34.5301 107.14 45.5201 100.95 50.5601L108.97 74.3801H97.9802L90.1902 53.5401V74.3801H67.9802L66.8402 68.4301H58.3702L56.5402 74.3801H35.4702V51.4801L29.9702 74.3801H24.2502L19.2102 51.7101V74.1501L7.76023 74.3801H7.74023ZM65.6802 56.2901L62.4702 37.2801L59.7202 56.2901H65.6702H65.6802ZM89.9502 41.8601C97.5102 41.4001 96.8202 32.0101 96.8202 32.0101C95.6802 22.8501 89.9502 23.3101 89.9502 23.3101V41.8601Z" fill="white"/>
</g>
<defs>
<clipPath id="clip0_0_181">
<rect width="188.23" height="85.19" fill="white"/>
</clipPath>
</defs>
</svg>
